<?xml version="1.0" encoding="utf-8"?>
<!-- Generator: Adobe Illustrator 16.0.0, SVG Export Plug-In . SVG Version: 6.00 Build 0)  -->
<!DOCTYPE svg PUBLIC "-//W3C//DTD SVG 1.1//EN" "http://www.w3.org/Graphics/SVG/1.1/DTD/svg11.dtd">
<svg version="1.1" id="Layer_1" xmlns="http://www.w3.org/2000/svg" xmlns:xlink="http://www.w3.org/1999/xlink" x="0px" y="0px"
	 width="817.078px" height="115.058px" viewBox="0 0 817.078 115.058" enable-background="new 0 0 817.078 115.058"
	 xml:space="preserve">
<g>
	<g>
		<path fill="#79549C" d="M90.216,108.98H72.87L21.713,35.772v73.208H4.514V6.078H21.86l51.304,73.208V6.078h17.052V108.98z"/>
		<path fill="#79549C" d="M110.352,42.829c0-21.021,17.199-38.221,38.221-38.221s38.221,17.199,38.221,38.221
			s-17.199,38.221-38.221,38.221S110.352,63.85,110.352,42.829z M182.089,108.98h-67.916V91.928h67.916V108.98z M127.404,42.829
			c0,11.76,9.408,21.168,21.168,21.168s21.168-9.408,21.168-21.168s-9.408-21.168-21.168-21.168S127.404,31.068,127.404,42.829z"/>
		<path fill="#79549C" d="M204.136,42.829c0-21.021,17.199-38.221,38.221-38.221s38.221,17.199,38.221,38.221
			s-17.199,38.221-38.221,38.221S204.136,63.85,204.136,42.829z M275.874,108.98h-67.916V91.928h67.916V108.98z M221.188,42.829
			c0,11.76,9.408,21.168,21.168,21.168s21.168-9.408,21.168-21.168s-9.408-21.168-21.168-21.168S221.188,31.068,221.188,42.829z"/>
		<path fill="#79549C" d="M297.479,80.461h17.2c0.294,8.525,7.35,12.789,14.994,12.789c7.938,0,14.994-5.145,14.994-13.23
			c0-8.673-8.085-13.965-14.994-14.259c-0.882,0-7.938,0-15.436-3.382c-10.731-4.998-16.758-14.112-16.758-26.313
			c0-19.551,15.583-31.458,32.194-31.458c17.787,0,31.459,12.054,31.753,29.547h-17.053c-0.294-8.526-6.909-12.348-14.7-12.348
			c-8.085,0-14.994,4.704-14.994,14.259c0,8.526,7.35,13.083,14.994,13.083c0.735,0,7.938,0,15.288,3.381
			c10.879,4.998,16.759,15.288,16.759,27.489c0,19.699-15.436,30.43-32.047,30.43C311.885,110.008,297.773,99.719,297.479,80.461z"
			/>
		<path fill="#79549C" d="M449.479,36.066c0,29.989-34.252,29.989-34.252,29.989h-17.052v42.925h-17.199V49.003h16.317
			l-16.317-25.726v-17.2h34.251C415.227,6.078,449.479,6.078,449.479,36.066z M432.426,36.066c0-12.789-17.199-12.789-17.199-12.789
			h-13.818l16.023,25.578C421.988,48.268,432.426,46.063,432.426,36.066z"/>
		<path fill="#79549C" d="M544.145,6.078V108.98h-17.199V66.055h-42.777v42.925h-17.199V6.078h17.199v42.631h42.777V6.078H544.145z"
			/>
		<path fill="#79549C" d="M584.715,23.277v25.726h42.777v17.052h-42.777v25.726h51.451v17.199h-68.65V6.078h68.65v17.2H584.715z"/>
		<path fill="#79549C" d="M707.9,108.98l-26.754-42.925h-9.85v42.925h-17.199V49.003h16.316l-16.316-25.726v-17.2h34.252
			c0,0,34.398,0,34.398,29.989c0,18.229-12.643,25.432-22.639,28.225l27.932,44.688H707.9z M690.555,48.855
			c4.557-0.441,14.994-2.646,14.994-12.789c0-12.789-17.199-12.789-17.199-12.789h-13.818L690.555,48.855z"/>
		<path fill="#79549C" d="M761.113,23.277v25.726h42.779v17.052h-42.779v25.726h51.451v17.199h-68.65V6.078h68.65v17.2H761.113z"/>
	</g>
	<g>
		<polygon fill="#5C3782" points="21.713,57.59 21.713,35.772 36.959,57.59 57.96,57.59 21.86,6.078 4.514,6.078 4.514,57.59 		"/>
		<rect x="73.164" y="6.078" fill="#5C3782" width="17.052" height="51.512"/>
		<path fill="#5C3782" d="M133.367,57.59c-3.691-3.804-5.962-8.995-5.962-14.761c0-11.76,9.408-21.168,21.168-21.168
			s21.168,9.408,21.168,21.168c0,5.766-2.271,10.958-5.962,14.761h20.03c1.92-4.547,2.984-9.536,2.984-14.761
			c0-21.021-17.199-38.221-38.221-38.221s-38.221,17.199-38.221,38.221c0,5.226,1.064,10.214,2.984,14.761H133.367z"/>
		<path fill="#5C3782" d="M227.151,57.59c-3.691-3.804-5.962-8.995-5.962-14.761c0-11.76,9.408-21.168,21.168-21.168
			s21.168,9.408,21.168,21.168c0,5.766-2.271,10.958-5.962,14.761h20.03c1.92-4.547,2.984-9.536,2.984-14.761
			c0-21.021-17.199-38.221-38.221-38.221s-38.221,17.199-38.221,38.221c0,5.226,1.064,10.214,2.984,14.761H227.151z"/>
		<path fill="#5C3782" d="M306.776,57.59h45.778c-2.17-2.015-4.699-3.729-7.593-5.059c-7.35-3.381-14.553-3.381-15.288-3.381
			c-7.644,0-14.994-4.557-14.994-13.083c0-9.555,6.909-14.259,14.994-14.259c7.791,0,14.406,3.822,14.7,12.348h17.053
			c-0.294-17.493-13.966-29.547-31.753-29.547c-16.611,0-32.194,11.907-32.194,31.458C297.479,45.057,300.761,52.363,306.776,57.59z
			"/>
		<path fill="#5C3782" d="M380.975,57.59h59.13c5.319-4.439,9.373-11.207,9.373-21.523c0-29.989-34.252-29.989-34.252-29.989
			h-34.251v17.2l16.317,25.726h-16.317V57.59z M415.227,23.277c0,0,17.199,0,17.199,12.789c0,9.996-10.438,12.201-14.994,12.789
			l-16.023-25.578H415.227z"/>
		<polygon fill="#5C3782" points="544.145,57.59 544.145,6.078 526.945,6.078 526.945,48.708 484.168,48.708 484.168,6.078 
			466.969,6.078 466.969,57.59 		"/>
		<polygon fill="#5C3782" points="627.492,57.59 627.492,49.003 584.715,49.003 584.715,23.277 636.166,23.277 636.166,6.078 
			567.516,6.078 567.516,57.59 		"/>
		<path fill="#5C3782" d="M654.098,57.59h59.308c5.311-4.453,9.343-11.229,9.343-21.523c0-29.989-34.398-29.989-34.398-29.989
			h-34.252v17.2l16.316,25.726h-16.316V57.59z M688.35,23.277c0,0,17.199,0,17.199,12.789c0,10.143-10.438,12.348-14.994,12.789
			l-16.023-25.578H688.35z"/>
		<polygon fill="#5C3782" points="743.914,6.078 743.914,57.59 803.893,57.59 803.893,49.003 761.113,49.003 761.113,23.277 
			812.564,23.277 812.564,6.078 		"/>
	</g>
</g>
</svg>
